<?xml version="1.0" encoding="UTF-8"?>
<!DOCTYPE svg PUBLIC "-//W3C//DTD SVG 1.1//EN" "http://www.w3.org/Graphics/SVG/1.1/DTD/svg11.dtd">
<svg xmlns="http://www.w3.org/2000/svg" version="1.1" width="1920px" height="628px" style="shape-rendering:geometricPrecision; text-rendering:geometricPrecision; image-rendering:optimizeQuality; fill-rule:evenodd; clip-rule:evenodd" xmlns:xlink="http://www.w3.org/1999/xlink">
<g><path style="opacity:1" fill="#fefefe" d="M -0.5,-0.5 C 639.5,-0.5 1279.5,-0.5 1919.5,-0.5C 1919.5,65.5 1919.5,131.5 1919.5,197.5C 1912.65,173.133 1902.49,150.133 1889,128.5C 1888.67,124.833 1888.33,121.167 1888,117.5C 1883.12,131.381 1877.78,145.048 1872,158.5C 1870.25,155.328 1868.25,152.328 1866,149.5C 1865.67,145.5 1865.33,141.5 1865,137.5C 1860.39,149.172 1855.89,160.839 1851.5,172.5C 1810.57,169.619 1771.91,177.619 1735.5,196.5C 1728.32,172.484 1718.16,149.817 1705,128.5C 1704.67,124.833 1704.33,121.167 1704,117.5C 1695.29,142.945 1684.62,167.612 1672,191.5C 1666.96,199.087 1661.79,206.587 1656.5,214C 1626.19,212.501 1596.86,217.001 1568.5,227.5C 1562.53,195.588 1551.03,165.921 1534,138.5C 1533.67,134.5 1533.33,130.5 1533,126.5C 1525.26,150.306 1515.6,173.306 1504,195.5C 1497.11,207.052 1489.45,218.052 1481,228.5C 1476.78,219.048 1471.78,210.048 1466,201.5C 1465.67,197.5 1465.33,193.5 1465,189.5C 1460.59,200.056 1456.59,210.723 1453,221.5C 1452.3,217.244 1451.13,213.244 1449.5,209.5C 1449.59,206.848 1448.92,204.515 1447.5,202.5C 1447.59,199.848 1446.92,197.515 1445.5,195.5C 1445.59,192.848 1444.92,190.515 1443.5,188.5C 1443.07,185.99 1442.41,183.657 1441.5,181.5C 1441.28,177.838 1440.28,174.505 1438.5,171.5C 1431.24,149.307 1420.57,128.973 1406.5,110.5C 1405.79,108.254 1405.29,105.92 1405,103.5C 1402.07,108.441 1400.24,113.775 1399.5,119.5C 1397.44,127.634 1394.78,135.634 1391.5,143.5C 1390.08,145.515 1389.41,147.848 1389.5,150.5C 1379.37,175.747 1365.87,199.08 1349,220.5C 1346,223.5 1343,226.5 1340,229.5C 1336.92,223.669 1333.59,218.002 1330,212.5C 1329.67,208.5 1329.33,204.5 1329,200.5C 1325.27,209.021 1321.94,217.688 1319,226.5C 1313.03,212.567 1306.03,199.233 1298,186.5C 1297.67,182.833 1297.33,179.167 1297,175.5C 1288.19,201.787 1277.19,227.121 1264,251.5C 1260.03,257.638 1255.86,263.638 1251.5,269.5C 1250.83,270.833 1250.17,270.833 1249.5,269.5C 1245.74,262.31 1241.74,255.31 1237.5,248.5C 1237.67,244.818 1237.5,241.152 1237,237.5C 1236.21,238.745 1235.71,240.078 1235.5,241.5C 1232.8,246.425 1230.97,251.759 1230,257.5C 1227.92,261.951 1225.75,266.284 1223.5,270.5C 1210.84,262.671 1197.51,256.171 1183.5,251C 1162.53,245.108 1141.53,245.108 1120.5,251C 1109.16,254.668 1097.99,258.835 1087,263.5C 1079.99,236.163 1069.16,210.497 1054.5,186.5C 1054.82,182.774 1054.49,179.107 1053.5,175.5C 1052.7,175.957 1052.37,176.624 1052.5,177.5C 1048.79,186.271 1045.62,195.271 1043,204.5C 1041.59,207.661 1039.92,210.661 1038,213.5C 1018.79,193.742 995.626,186.076 968.5,190.5C 963.776,180.05 958.276,170.05 952,160.5C 951.667,156.5 951.333,152.5 951,148.5C 945.922,163.402 940.255,178.069 934,192.5C 928.541,161.446 917.208,132.779 900,106.5C 899.667,103.167 899.333,99.8333 899,96.5C 891.163,118.687 882.163,140.353 872,161.5C 857.551,186.836 839.385,209.336 817.5,229C 815.5,229.667 813.5,229.667 811.5,229C 804.69,226.381 797.69,224.548 790.5,223.5C 786.713,222.082 782.713,221.082 778.5,220.5C 707.424,209.425 636.757,211.592 566.5,227C 545.581,232.14 525.248,238.973 505.5,247.5C 504.914,247.291 504.414,246.957 504,246.5C 498.391,223.062 491.391,200.062 483,177.5C 475.54,161.245 466.54,145.911 456,131.5C 455.667,129.5 455.333,127.5 455,125.5C 449.058,146.994 441.724,167.994 433,188.5C 429.841,195.488 426.174,202.154 422,208.5C 415.984,195.797 409.484,183.464 402.5,171.5C 402.665,167.818 402.499,164.152 402,160.5C 400.812,161.563 400.312,162.897 400.5,164.5C 392.335,187.242 382.835,209.575 372,231.5C 369.458,235.952 366.458,239.952 363,243.5C 309.815,218.651 254.982,214.651 198.5,231.5C 192.854,220.209 186.688,209.209 180,198.5C 179.667,194.5 179.333,190.5 179,186.5C 174.245,200.437 168.912,214.104 163,227.5C 158.917,206.501 153.584,185.834 147,165.5C 140.641,149.781 132.974,134.781 124,120.5C 123.667,117.167 123.333,113.833 123,110.5C 117.783,125.061 112.116,139.394 106,153.5C 100.721,140.941 94.3872,128.941 87,117.5C 86.6667,114.167 86.3333,110.833 86,107.5C 82.3096,115.21 79.4763,123.21 77.5,131.5C 76.8333,131.833 76.1667,132.167 75.5,132.5C 70.9797,99.7741 61.1463,68.7741 46,39.5C 43,34.8333 40,30.1667 37,25.5C 36.6667,22.1667 36.3333,18.8333 36,15.5C 27.9981,38.8414 18.3315,61.5081 7,83.5C 4.97149,87.5796 2.47149,91.2463 -0.5,94.5C -0.5,62.8333 -0.5,31.1667 -0.5,-0.5 Z"/></g>
<g><path style="opacity:1" fill="#1db639" d="M 75.5,132.5 C 76.3013,134.793 76.968,134.46 77.5,131.5C 79.4763,123.21 82.3096,115.21 86,107.5C 86.3333,110.833 86.6667,114.167 87,117.5C 94.3872,128.941 100.721,140.941 106,153.5C 112.116,139.394 117.783,125.061 123,110.5C 123.333,113.833 123.667,117.167 124,120.5C 132.974,134.781 140.641,149.781 147,165.5C 153.584,185.834 158.917,206.501 163,227.5C 168.912,214.104 174.245,200.437 179,186.5C 179.333,190.5 179.667,194.5 180,198.5C 186.688,209.209 192.854,220.209 198.5,231.5C 254.982,214.651 309.815,218.651 363,243.5C 366.458,239.952 369.458,235.952 372,231.5C 382.835,209.575 392.335,187.242 400.5,164.5C 401.167,166.833 401.833,169.167 402.5,171.5C 409.484,183.464 415.984,195.797 422,208.5C 426.174,202.154 429.841,195.488 433,188.5C 441.724,167.994 449.058,146.994 455,125.5C 455.333,127.5 455.667,129.5 456,131.5C 466.54,145.911 475.54,161.245 483,177.5C 491.391,200.062 498.391,223.062 504,246.5C 504.414,246.957 504.914,247.291 505.5,247.5C 525.248,238.973 545.581,232.14 566.5,227C 636.757,211.592 707.424,209.425 778.5,220.5C 778.611,221.117 778.944,221.617 779.5,222C 783.114,222.936 786.78,223.436 790.5,223.5C 797.69,224.548 804.69,226.381 811.5,229C 813.5,229.667 815.5,229.667 817.5,229C 839.385,209.336 857.551,186.836 872,161.5C 882.163,140.353 891.163,118.687 899,96.5C 899.333,99.8333 899.667,103.167 900,106.5C 917.208,132.779 928.541,161.446 934,192.5C 940.255,178.069 945.922,163.402 951,148.5C 951.333,152.5 951.667,156.5 952,160.5C 958.276,170.05 963.776,180.05 968.5,190.5C 995.626,186.076 1018.79,193.742 1038,213.5C 1039.92,210.661 1041.59,207.661 1043,204.5C 1045.62,195.271 1048.79,186.271 1052.5,177.5C 1053.17,180.5 1053.83,183.5 1054.5,186.5C 1069.16,210.497 1079.99,236.163 1087,263.5C 1097.99,258.835 1109.16,254.668 1120.5,251C 1141.53,245.108 1162.53,245.108 1183.5,251C 1197.51,256.171 1210.84,262.671 1223.5,270.5C 1225.75,266.284 1227.92,261.951 1230,257.5C 1230.97,251.759 1232.8,246.425 1235.5,241.5C 1236.17,243.833 1236.83,246.167 1237.5,248.5C 1241.74,255.31 1245.74,262.31 1249.5,269.5C 1250.17,270.833 1250.83,270.833 1251.5,269.5C 1255.86,263.638 1260.03,257.638 1264,251.5C 1277.19,227.121 1288.19,201.787 1297,175.5C 1297.33,179.167 1297.67,182.833 1298,186.5C 1306.03,199.233 1313.03,212.567 1319,226.5C 1321.94,217.688 1325.27,209.021 1329,200.5C 1329.33,204.5 1329.67,208.5 1330,212.5C 1333.59,218.002 1336.92,223.669 1340,229.5C 1343,226.5 1346,223.5 1349,220.5C 1365.87,199.08 1379.37,175.747 1389.5,150.5C 1390.92,148.485 1391.59,146.152 1391.5,143.5C 1394.78,135.634 1397.44,127.634 1399.5,119.5C 1400.56,117.192 1401.72,114.858 1403,112.5C 1403.33,114.167 1403.67,115.833 1404,117.5C 1403.97,114.639 1404.8,112.305 1406.5,110.5C 1420.57,128.973 1431.24,149.307 1438.5,171.5C 1438.72,175.162 1439.72,178.495 1441.5,181.5C 1442.41,183.657 1443.07,185.99 1443.5,188.5C 1443.41,191.152 1444.08,193.485 1445.5,195.5C 1445.41,198.152 1446.08,200.485 1447.5,202.5C 1447.41,205.152 1448.08,207.485 1449.5,209.5C 1451.13,213.244 1452.3,217.244 1453,221.5C 1456.59,210.723 1460.59,200.056 1465,189.5C 1465.33,193.5 1465.67,197.5 1466,201.5C 1471.78,210.048 1476.78,219.048 1481,228.5C 1489.45,218.052 1497.11,207.052 1504,195.5C 1515.6,173.306 1525.26,150.306 1533,126.5C 1533.33,130.5 1533.67,134.5 1534,138.5C 1551.03,165.921 1562.53,195.588 1568.5,227.5C 1596.86,217.001 1626.19,212.501 1656.5,214C 1661.79,206.587 1666.96,199.087 1672,191.5C 1684.62,167.612 1695.29,142.945 1704,117.5C 1704.33,121.167 1704.67,124.833 1705,128.5C 1718.16,149.817 1728.32,172.484 1735.5,196.5C 1771.91,177.619 1810.57,169.619 1851.5,172.5C 1855.89,160.839 1860.39,149.172 1865,137.5C 1865.33,141.5 1865.67,145.5 1866,149.5C 1868.25,152.328 1870.25,155.328 1872,158.5C 1877.78,145.048 1883.12,131.381 1888,117.5C 1888.33,121.167 1888.67,124.833 1889,128.5C 1902.49,150.133 1912.65,173.133 1919.5,197.5C 1919.5,212.833 1919.5,228.167 1919.5,243.5C 1866.66,257.6 1813.66,258.1 1760.5,245C 1746.96,241.532 1733.29,238.532 1719.5,236C 1705.32,229.037 1690.32,224.704 1674.5,223C 1586.99,215.839 1519.83,249.005 1473,322.5C 1465.9,309.55 1460.57,295.883 1457,281.5C 1450.2,251.949 1443.86,222.283 1438,192.5C 1431.4,165.645 1420.23,140.979 1404.5,118.5C 1393.49,168.694 1369.82,211.86 1333.5,248C 1317.11,264.026 1300.11,279.359 1282.5,294C 1273.26,302.74 1264.59,311.906 1256.5,321.5C 1244.44,304.939 1230.77,289.772 1215.5,276C 1187.34,255.106 1156.34,249.773 1122.5,260C 1104.88,264.317 1088.22,270.983 1072.5,280C 1058.18,290.494 1043.51,300.494 1028.5,310C 1008.8,320.622 988.135,328.788 966.5,334.5C 961.652,328.145 957.819,321.145 955,313.5C 948.605,293.809 943.271,273.809 939,253.5C 935.33,226.466 929.997,199.799 923,173.5C 917.151,155.137 909.151,137.803 899,121.5C 898.667,118.5 898.333,115.5 898,112.5C 888.788,139.15 877.454,164.816 864,189.5C 852.76,207.42 839.26,223.587 823.5,238C 821.833,238.667 820.167,238.667 818.5,238C 778.219,226.149 737.052,220.649 695,221.5C 638.682,220.643 583.848,229.143 530.5,247C 520.355,250.908 510.355,255.075 500.5,259.5C 495.326,237.8 489.826,216.133 484,194.5C 479.477,182.455 474.144,170.788 468,159.5C 463.27,153.046 459.937,146.046 458,138.5C 449.105,165.286 437.772,190.952 424,215.5C 412.424,233.755 398.591,250.255 382.5,265C 376.919,263.706 371.919,261.039 367.5,257C 336.361,239.502 302.861,231.002 267,231.5C 212.35,229.715 164.183,246.215 122.5,281C 104.879,292.323 86.0461,301.156 66,307.5C 53.9593,294.105 44.9593,278.771 39,261.5C 28.2744,228.493 18.6077,195.16 10,161.5C 7.71469,155.93 5.71469,150.264 4,144.5C 2.72576,141.609 1.22576,138.942 -0.5,136.5C -0.5,122.5 -0.5,108.5 -0.5,94.5C 2.47149,91.2463 4.97149,87.5796 7,83.5C 18.3315,61.5081 27.9981,38.8414 36,15.5C 36.3333,18.8333 36.6667,22.1667 37,25.5C 40,30.1667 43,34.8333 46,39.5C 61.1463,68.7741 70.9797,99.7741 75.5,132.5 Z"/></g>
<g><path style="opacity:1" fill="#54c862" d="M 1406.5,110.5 C 1404.8,112.305 1403.97,114.639 1404,117.5C 1403.67,115.833 1403.33,114.167 1403,112.5C 1401.72,114.858 1400.56,117.192 1399.5,119.5C 1400.24,113.775 1402.07,108.441 1405,103.5C 1405.29,105.92 1405.79,108.254 1406.5,110.5 Z"/></g>
<g><path style="opacity:1" fill="#109429" d="M 1919.5,243.5 C 1919.5,371.5 1919.5,499.5 1919.5,627.5C 1279.5,627.5 639.5,627.5 -0.5,627.5C -0.5,463.833 -0.5,300.167 -0.5,136.5C 1.22576,138.942 2.72576,141.609 4,144.5C 5.71469,150.264 7.71469,155.93 10,161.5C 18.6077,195.16 28.2744,228.493 39,261.5C 44.9593,278.771 53.9593,294.105 66,307.5C 86.0461,301.156 104.879,292.323 122.5,281C 164.183,246.215 212.35,229.715 267,231.5C 302.861,231.002 336.361,239.502 367.5,257C 371.919,261.039 376.919,263.706 382.5,265C 398.591,250.255 412.424,233.755 424,215.5C 437.772,190.952 449.105,165.286 458,138.5C 459.937,146.046 463.27,153.046 468,159.5C 474.144,170.788 479.477,182.455 484,194.5C 489.826,216.133 495.326,237.8 500.5,259.5C 510.355,255.075 520.355,250.908 530.5,247C 583.848,229.143 638.682,220.643 695,221.5C 737.052,220.649 778.219,226.149 818.5,238C 820.167,238.667 821.833,238.667 823.5,238C 839.26,223.587 852.76,207.42 864,189.5C 877.454,164.816 888.788,139.15 898,112.5C 898.333,115.5 898.667,118.5 899,121.5C 909.151,137.803 917.151,155.137 923,173.5C 929.997,199.799 935.33,226.466 939,253.5C 943.271,273.809 948.605,293.809 955,313.5C 957.819,321.145 961.652,328.145 966.5,334.5C 988.135,328.788 1008.8,320.622 1028.5,310C 1043.51,300.494 1058.18,290.494 1072.5,280C 1088.22,270.983 1104.88,264.317 1122.5,260C 1156.34,249.773 1187.34,255.106 1215.5,276C 1230.77,289.772 1244.44,304.939 1256.5,321.5C 1264.59,311.906 1273.26,302.74 1282.5,294C 1300.11,279.359 1317.11,264.026 1333.5,248C 1369.82,211.86 1393.49,168.694 1404.5,118.5C 1420.23,140.979 1431.4,165.645 1438,192.5C 1443.86,222.283 1450.2,251.949 1457,281.5C 1460.57,295.883 1465.9,309.55 1473,322.5C 1519.83,249.005 1586.99,215.839 1674.5,223C 1690.32,224.704 1705.32,229.037 1719.5,236C 1733.29,238.532 1746.96,241.532 1760.5,245C 1813.66,258.1 1866.66,257.6 1919.5,243.5 Z"/></g>
<g><path style="opacity:1" fill="#95dca2" d="M 77.5,131.5 C 76.968,134.46 76.3013,134.793 75.5,132.5C 76.1667,132.167 76.8333,131.833 77.5,131.5 Z"/></g>
<g><path style="opacity:1" fill="#7dd48a" d="M 1391.5,143.5 C 1391.59,146.152 1390.92,148.485 1389.5,150.5C 1389.41,147.848 1390.08,145.515 1391.5,143.5 Z"/></g>
<g><path style="opacity:1" fill="#8dda9a" d="M 402.5,171.5 C 401.833,169.167 401.167,166.833 400.5,164.5C 400.312,162.897 400.812,161.563 402,160.5C 402.499,164.152 402.665,167.818 402.5,171.5 Z"/></g>
<g><path style="opacity:1" fill="#7cd489" d="M 1438.5,171.5 C 1440.28,174.505 1441.28,177.838 1441.5,181.5C 1439.72,178.495 1438.72,175.162 1438.5,171.5 Z"/></g>
<g><path style="opacity:1" fill="#a4e2af" d="M 1054.5,186.5 C 1053.83,183.5 1053.17,180.5 1052.5,177.5C 1052.37,176.624 1052.7,175.957 1053.5,175.5C 1054.49,179.107 1054.82,182.774 1054.5,186.5 Z"/></g>
<g><path style="opacity:1" fill="#7bd489" d="M 1443.5,188.5 C 1444.92,190.515 1445.59,192.848 1445.5,195.5C 1444.08,193.485 1443.41,191.152 1443.5,188.5 Z"/></g>
<g><path style="opacity:1" fill="#7dd58b" d="M 1445.5,195.5 C 1446.92,197.515 1447.59,199.848 1447.5,202.5C 1446.08,200.485 1445.41,198.152 1445.5,195.5 Z"/></g>
<g><path style="opacity:1" fill="#81d68e" d="M 1447.5,202.5 C 1448.92,204.515 1449.59,206.848 1449.5,209.5C 1448.08,207.485 1447.41,205.152 1447.5,202.5 Z"/></g>
<g><path style="opacity:1" fill="#64cb72" d="M 778.5,220.5 C 782.713,221.082 786.713,222.082 790.5,223.5C 786.78,223.436 783.114,222.936 779.5,222C 778.944,221.617 778.611,221.117 778.5,220.5 Z"/></g>
<g><path style="opacity:1" fill="#7dd58d" d="M 1237.5,248.5 C 1236.83,246.167 1236.17,243.833 1235.5,241.5C 1235.71,240.078 1236.21,238.745 1237,237.5C 1237.5,241.152 1237.67,244.818 1237.5,248.5 Z"/></g>
</svg>
