<svg version="1.1" id="Layer_1" xmlns="http://www.w3.org/2000/svg" xmlns:xlink="http://www.w3.org/1999/xlink" x="0px" y="0px"
	 width="100%" viewBox="0 0 1920 1080" enable-background="new 0 0 1920 1080" xml:space="preserve">
<path fill="#FFFFFF" opacity="1.000000" stroke="none" 
	d="
M0.999993,548.000000 
	C1.000000,365.690460 1.000000,183.380920 1.000000,1.035685 
	C640.892700,1.035685 1280.785400,1.035685 1921.000000,1.035685 
	C1921.000000,217.697479 1921.000000,434.395142 1920.667236,651.364990 
	C1915.672363,638.319763 1910.851685,625.055237 1906.392212,611.670288 
	C1901.826660,597.966675 1888.910522,587.900818 1889.040771,572.007690 
	C1884.060913,585.265137 1879.081055,598.522522 1873.833984,612.491028 
	C1868.837158,605.757141 1864.958618,599.883789 1866.793457,591.926392 
	C1866.078613,592.471191 1865.849121,592.998657 1865.648315,593.536804 
	C1862.044678,603.194092 1858.327637,612.811584 1854.905273,622.532776 
	C1853.658203,626.075195 1851.839600,627.278992 1847.989502,626.978455 
	C1830.656128,625.625366 1813.389893,626.439514 1796.246704,629.463196 
	C1775.296631,633.158447 1755.441284,640.056641 1736.379028,650.140991 
	C1735.829468,648.533508 1735.290527,647.171326 1734.895264,645.768677 
	C1729.311279,625.959167 1721.388550,607.136536 1710.638306,589.584595 
	C1707.333496,584.188904 1704.675293,578.893188 1705.903076,572.372803 
	C1705.913086,572.319397 1705.464844,572.179688 1705.094116,572.022400 
	C1703.555908,575.884094 1701.817505,579.674805 1700.514893,583.609863 
	C1690.998535,612.360535 1678.353149,639.542114 1660.646118,664.247864 
	C1658.714111,666.943481 1656.728882,668.111755 1653.238525,667.958923 
	C1629.246094,666.908386 1605.725342,669.792419 1582.817627,677.168396 
	C1578.632324,678.515930 1574.487549,679.989807 1570.094116,681.483521 
	C1569.602417,679.446045 1569.214722,678.014832 1568.913574,676.565613 
	C1563.740112,651.675964 1555.997314,627.739685 1543.477417,605.442139 
	C1539.267578,597.944214 1532.305786,591.296997 1534.630981,581.087708 
	C1521.555176,617.067749 1507.844849,652.322510 1482.716553,682.104431 
	C1479.591187,676.246094 1476.757935,670.818054 1473.815796,665.449707 
	C1470.157837,658.775818 1464.430298,652.827515 1467.290161,643.937805 
	C1466.853149,643.946960 1466.416016,643.956116 1465.979004,643.965271 
	C1462.276123,654.156616 1458.573364,664.347961 1454.475708,675.625732 
	C1451.487183,664.942749 1448.692139,655.531250 1446.228027,646.033752 
	C1438.834229,617.535034 1427.285278,590.959534 1410.239990,566.846191 
	C1408.434937,564.292847 1407.279419,561.280334 1405.493530,557.848450 
	C1393.030151,604.029297 1376.233032,648.011963 1341.397705,683.385681 
	C1337.740601,673.532410 1328.077637,666.775146 1330.058838,654.947876 
	C1326.984741,663.350708 1323.910767,671.753601 1320.684814,680.571594 
	C1316.601929,672.231262 1312.652588,664.551819 1309.055054,656.710815 
	C1305.064697,648.013306 1296.610840,641.076050 1298.615723,629.830078 
	C1286.439087,663.176514 1273.978638,696.026306 1251.275879,725.065613 
	C1247.985962,713.037781 1236.167236,705.600281 1237.841187,692.091736 
	C1233.910522,702.903015 1229.979736,713.714233 1225.568604,725.846863 
	C1181.129028,692.195374 1135.056152,694.336304 1087.924805,717.803711 
	C1087.414551,716.078003 1087.135498,715.326660 1086.971191,714.551025 
	C1082.347290,692.718811 1074.127441,672.282043 1063.378540,652.770020 
	C1059.467773,645.671021 1052.772217,639.493774 1054.598633,629.968506 
	C1049.976318,642.452637 1045.354004,654.936768 1040.564819,667.871887 
	C1021.466980,647.733582 999.580872,639.727539 973.264954,644.514404 
	C972.029053,644.739319 969.811462,643.166199 969.062866,641.853455 
	C965.684082,635.928894 962.750366,629.752808 959.502930,623.750366 
	C956.014038,617.301819 950.665771,611.502686 952.417969,603.092407 
	C947.041199,617.238220 941.664490,631.384033 936.287720,645.529785 
	C934.853455,643.429382 934.369629,641.674683 934.014038,639.894348 
	C929.112854,615.361511 920.364624,592.283752 907.911560,570.593323 
	C904.262390,564.237305 898.789429,558.488770 901.067810,549.926575 
	C899.271851,553.027100 897.942444,556.005920 896.943542,559.091736 
	C890.421692,579.239380 881.996765,598.580750 871.988525,617.210815 
	C858.744202,641.864990 840.238098,662.308899 820.042053,681.382629 
	C817.638611,683.652527 815.564575,683.314758 812.850830,682.465210 
	C792.938660,676.231384 772.543457,672.234009 751.809570,670.131836 
	C716.763428,666.578613 681.646729,666.612671 646.533447,668.964294 
	C599.216431,672.133118 553.320862,681.692688 509.435455,700.060730 
	C508.279541,700.544495 507.035858,700.818726 505.699951,701.231812 
	C503.354187,692.640747 500.997040,684.509644 498.918823,676.307922 
	C490.973633,644.951538 479.537170,615.152466 460.486725,588.658936 
	C458.654266,586.110596 457.487793,583.083313 455.891113,580.048279 
	C447.806061,608.298096 438.848785,636.582703 423.873749,662.689880 
	C418.992249,653.347046 414.458252,644.331787 409.603149,635.492859 
	C406.235229,629.361450 401.244049,623.855469 403.334747,615.719116 
	C392.839844,644.132629 382.140961,672.168579 365.301208,697.934387 
	C311.815216,670.023804 256.152924,670.849487 199.709915,684.817810 
	C195.600250,676.961365 191.729858,669.419617 187.725327,661.949768 
	C184.198502,655.371033 178.549713,649.538879 180.299149,640.906860 
	C175.254440,654.290405 170.209747,667.673950 165.165054,681.057495 
	C163.328705,677.708008 162.582352,674.645813 161.979843,671.555603 
	C155.995880,640.864563 147.766693,610.958984 131.456863,583.862549 
	C127.907738,577.966187 123.183884,572.467957 124.480057,564.591187 
	C119.109833,578.644043 113.739609,592.696960 108.107193,607.435913 
	C104.636963,600.467712 101.441376,594.786560 98.921822,588.819885 
	C95.120155,579.817078 86.032135,573.022095 87.145454,561.646729 
	C84.129555,569.975952 81.113655,578.305176 77.592148,588.030823 
	C76.504242,583.074646 75.676529,579.610291 74.987907,576.118530 
	C69.103981,546.282593 61.268974,517.133850 45.722729,490.585510 
	C41.827263,483.933197 35.972775,477.897552 38.011505,468.916412 
	C37.323620,469.445984 37.112095,469.843445 36.940521,470.257416 
	C28.675150,490.202271 20.664820,510.258667 12.005747,530.031006 
	C9.214417,536.404846 4.716958,542.031555 0.999993,548.000000 
z"/>
<path fill="#109429" opacity="1.000000" stroke="none" 
	d="
M1921.000000,697.000000 
	C1921.000000,824.981140 1921.000000,952.962219 1921.000000,1080.943359 
	C1920.852173,1080.962280 1920.704468,1080.997681 1920.556641,1080.997681 
	C1280.817627,1081.000000 641.078613,1081.000000 1.000000,1081.000000 
	C1.000000,918.304138 1.000000,755.607971 1.352819,592.501587 
	C2.634842,593.408936 3.937311,594.599915 4.434149,596.064270 
	C8.376128,607.682556 12.399244,619.281921 15.954404,631.021301 
	C24.700981,659.903076 32.866673,688.965271 41.950562,717.738770 
	C47.030216,733.828674 55.980427,748.000732 66.817444,760.845764 
	C90.658546,753.547485 112.315758,743.013672 132.175140,728.613892 
	C142.640137,721.025940 153.331863,713.573547 164.630920,707.348022 
	C192.395279,692.050476 222.984238,686.781982 254.133530,685.247742 
	C269.310486,684.500183 284.692230,685.589905 299.840363,687.185791 
	C317.358032,689.031250 334.322174,693.869934 350.198486,701.696228 
	C359.987427,706.521851 369.411194,712.091309 378.966736,717.384888 
	C381.080505,718.555786 382.806366,719.646606 385.155396,717.433105 
	C399.239838,704.161438 411.959503,689.695007 422.587738,673.542542 
	C433.588806,656.823364 441.577271,638.511841 449.064667,620.020996 
	C452.694183,611.057556 455.733673,601.855225 459.165161,592.417603 
	C468.322021,612.318726 478.619324,630.975647 485.551880,650.808716 
	C492.535583,670.787903 496.176117,691.935669 501.361755,712.895874 
	C510.720642,709.168335 519.871521,705.344360 529.149902,701.859802 
	C566.338562,687.893250 604.993225,680.515137 644.425903,677.145996 
	C660.615540,675.762756 676.912231,675.511414 693.169250,675.094849 
	C699.948914,674.921021 706.752625,675.643677 713.544128,675.984985 
	C726.461243,676.634033 739.391418,677.102234 752.290955,678.005676 
	C775.191284,679.609741 797.552185,684.160889 819.358765,691.302429 
	C822.747009,692.412109 825.006409,691.759216 827.305847,689.249084 
	C832.807251,683.243530 838.504822,677.418213 844.046082,671.448486 
	C855.754883,658.834229 865.623596,644.756165 873.029907,629.363159 
	C881.358154,612.053894 888.031616,593.948669 895.428894,576.191284 
	C896.725769,573.078064 898.041626,569.972717 898.974304,567.754395 
	C900.364502,571.546692 901.680298,575.698425 903.409424,579.670166 
	C904.729858,582.703247 906.581116,585.504456 908.183533,588.415833 
	C921.307007,612.259460 928.263367,638.110596 933.016113,664.681091 
	C935.694336,679.653870 938.208923,694.659302 941.149963,709.580505 
	C943.100952,719.478760 945.695496,729.249390 947.967651,739.085144 
	C951.720825,755.332214 956.803894,771.080872 965.798218,785.275391 
	C966.510498,786.399414 969.057983,787.295654 970.387817,786.938660 
	C977.914124,784.918030 985.378967,782.632141 992.772766,780.161255 
	C1016.467529,772.242798 1037.733887,759.918274 1057.744019,745.042419 
	C1067.041016,738.130859 1076.844727,731.449829 1087.346191,726.726440 
	C1099.829834,721.111450 1113.140747,717.084595 1126.399170,713.501648 
	C1146.685669,708.019470 1167.273804,706.747498 1187.657471,713.398987 
	C1210.558228,720.871826 1226.884033,737.106873 1241.918335,754.910950 
	C1247.441040,761.451111 1252.680420,768.230530 1256.359009,772.800964 
	C1266.828369,763.463135 1277.043213,754.487976 1287.104614,745.344299 
	C1299.888062,733.726990 1312.374146,721.777649 1325.305908,710.330078 
	C1339.665161,697.618835 1352.230957,683.433228 1363.732300,668.083191 
	C1377.747559,649.378174 1387.228516,628.399475 1395.959595,607.043640 
	C1400.474365,596.000671 1403.500122,584.348938 1407.257812,572.789978 
	C1417.750122,589.102966 1427.379639,606.263000 1432.700317,625.176819 
	C1438.968994,647.460388 1444.101196,670.095459 1448.887451,692.755310 
	C1453.751953,715.785706 1458.663818,738.755066 1467.120605,760.789551 
	C1469.081299,765.898193 1471.572632,770.803223 1474.163696,776.566772 
	C1475.324707,774.903687 1475.729736,774.398682 1476.054932,773.846558 
	C1489.034180,751.815857 1505.989624,733.306702 1525.934448,717.431152 
	C1539.547974,706.595093 1554.471558,697.995667 1570.481812,691.253052 
	C1592.242065,682.088989 1614.916016,676.706055 1638.521362,676.113831 
	C1651.295410,675.793335 1664.182739,675.881836 1676.864258,677.235229 
	C1687.633423,678.384521 1698.255127,681.325806 1708.792725,684.051392 
	C1713.554321,685.282898 1717.780151,688.647461 1722.549194,689.777222 
	C1737.675781,693.360840 1752.882935,696.679932 1768.173218,699.477356 
	C1785.562012,702.658875 1802.988892,706.175781 1820.558594,707.656250 
	C1835.053223,708.877686 1849.788452,707.556030 1864.401855,706.976868 
	C1883.694580,706.212158 1902.422607,701.968445 1921.000000,697.000000 
z"/>
<path fill="#1AB738" opacity="1.000000" stroke="none" 
	d="
M1921.000000,696.531372 
	C1902.422607,701.968445 1883.694580,706.212158 1864.401855,706.976868 
	C1849.788452,707.556030 1835.053223,708.877686 1820.558594,707.656250 
	C1802.988892,706.175781 1785.562012,702.658875 1768.173218,699.477356 
	C1752.882935,696.679932 1737.675781,693.360840 1722.549194,689.777222 
	C1717.780151,688.647461 1713.554321,685.282898 1708.792725,684.051392 
	C1698.255127,681.325806 1687.633423,678.384521 1676.864258,677.235229 
	C1664.182739,675.881836 1651.295410,675.793335 1638.521362,676.113831 
	C1614.916016,676.706055 1592.242065,682.088989 1570.481812,691.253052 
	C1554.471558,697.995667 1539.547974,706.595093 1525.934448,717.431152 
	C1505.989624,733.306702 1489.034180,751.815857 1476.054932,773.846558 
	C1475.729736,774.398682 1475.324707,774.903687 1474.163696,776.566772 
	C1471.572632,770.803223 1469.081299,765.898193 1467.120605,760.789551 
	C1458.663818,738.755066 1453.751953,715.785706 1448.887451,692.755310 
	C1444.101196,670.095459 1438.968994,647.460388 1432.700317,625.176819 
	C1427.379639,606.263000 1417.750122,589.102966 1407.257812,572.789978 
	C1403.500122,584.348938 1400.474365,596.000671 1395.959595,607.043640 
	C1387.228516,628.399475 1377.747559,649.378174 1363.732300,668.083191 
	C1352.230957,683.433228 1339.665161,697.618835 1325.305908,710.330078 
	C1312.374146,721.777649 1299.888062,733.726990 1287.104614,745.344299 
	C1277.043213,754.487976 1266.828369,763.463135 1256.359009,772.800964 
	C1252.680420,768.230530 1247.441040,761.451111 1241.918335,754.910950 
	C1226.884033,737.106873 1210.558228,720.871826 1187.657471,713.398987 
	C1167.273804,706.747498 1146.685669,708.019470 1126.399170,713.501648 
	C1113.140747,717.084595 1099.829834,721.111450 1087.346191,726.726440 
	C1076.844727,731.449829 1067.041016,738.130859 1057.744019,745.042419 
	C1037.733887,759.918274 1016.467529,772.242798 992.772766,780.161255 
	C985.378967,782.632141 977.914124,784.918030 970.387817,786.938660 
	C969.057983,787.295654 966.510498,786.399414 965.798218,785.275391 
	C956.803894,771.080872 951.720825,755.332214 947.967651,739.085144 
	C945.695496,729.249390 943.100952,719.478760 941.149963,709.580505 
	C938.208923,694.659302 935.694336,679.653870 933.016113,664.681091 
	C928.263367,638.110596 921.307007,612.259460 908.183533,588.415833 
	C906.581116,585.504456 904.729858,582.703247 903.409424,579.670166 
	C901.680298,575.698425 900.364502,571.546692 898.974304,567.754395 
	C898.041626,569.972717 896.725769,573.078064 895.428894,576.191284 
	C888.031616,593.948669 881.358154,612.053894 873.029907,629.363159 
	C865.623596,644.756165 855.754883,658.834229 844.046082,671.448486 
	C838.504822,677.418213 832.807251,683.243530 827.305847,689.249084 
	C825.006409,691.759216 822.747009,692.412109 819.358765,691.302429 
	C797.552185,684.160889 775.191284,679.609741 752.290955,678.005676 
	C739.391418,677.102234 726.461243,676.634033 713.544128,675.984985 
	C706.752625,675.643677 699.948914,674.921021 693.169250,675.094849 
	C676.912231,675.511414 660.615540,675.762756 644.425903,677.145996 
	C604.993225,680.515137 566.338562,687.893250 529.149902,701.859802 
	C519.871521,705.344360 510.720642,709.168335 501.361755,712.895874 
	C496.176117,691.935669 492.535583,670.787903 485.551880,650.808716 
	C478.619324,630.975647 468.322021,612.318726 459.165161,592.417603 
	C455.733673,601.855225 452.694183,611.057556 449.064667,620.020996 
	C441.577271,638.511841 433.588806,656.823364 422.587738,673.542542 
	C411.959503,689.695007 399.239838,704.161438 385.155396,717.433105 
	C382.806366,719.646606 381.080505,718.555786 378.966736,717.384888 
	C369.411194,712.091309 359.987427,706.521851 350.198486,701.696228 
	C334.322174,693.869934 317.358032,689.031250 299.840363,687.185791 
	C284.692230,685.589905 269.310486,684.500183 254.133530,685.247742 
	C222.984238,686.781982 192.395279,692.050476 164.630920,707.348022 
	C153.331863,713.573547 142.640137,721.025940 132.175140,728.613892 
	C112.315758,743.013672 90.658546,753.547485 66.817444,760.845764 
	C55.980427,748.000732 47.030216,733.828674 41.950562,717.738770 
	C32.866673,688.965271 24.700981,659.903076 15.954404,631.021301 
	C12.399244,619.281921 8.376128,607.682556 4.434149,596.064270 
	C3.937311,594.599915 2.634842,593.408936 1.352819,592.045654 
	C1.000000,577.645752 1.000000,563.291565 0.999993,548.468628 
	C4.716958,542.031555 9.214417,536.404846 12.005747,530.031006 
	C20.664820,510.258667 28.675150,490.202271 36.940521,470.257416 
	C37.112095,469.843445 37.323620,469.445984 38.011505,468.916412 
	C35.972775,477.897552 41.827263,483.933197 45.722729,490.585510 
	C61.268974,517.133850 69.103981,546.282593 74.987907,576.118530 
	C75.676529,579.610291 76.504242,583.074646 77.592148,588.030823 
	C81.113655,578.305176 84.129555,569.975952 87.145454,561.646729 
	C86.032135,573.022095 95.120155,579.817078 98.921822,588.819885 
	C101.441376,594.786560 104.636963,600.467712 108.107193,607.435913 
	C113.739609,592.696960 119.109833,578.644043 124.480057,564.591187 
	C123.183884,572.467957 127.907738,577.966187 131.456863,583.862549 
	C147.766693,610.958984 155.995880,640.864563 161.979843,671.555603 
	C162.582352,674.645813 163.328705,677.708008 165.165054,681.057495 
	C170.209747,667.673950 175.254440,654.290405 180.299149,640.906860 
	C178.549713,649.538879 184.198502,655.371033 187.725327,661.949768 
	C191.729858,669.419617 195.600250,676.961365 199.709915,684.817810 
	C256.152924,670.849487 311.815216,670.023804 365.301208,697.934387 
	C382.140961,672.168579 392.839844,644.132629 403.334747,615.719116 
	C401.244049,623.855469 406.235229,629.361450 409.603149,635.492859 
	C414.458252,644.331787 418.992249,653.347046 423.873749,662.689880 
	C438.848785,636.582703 447.806061,608.298096 455.891113,580.048279 
	C457.487793,583.083313 458.654266,586.110596 460.486725,588.658936 
	C479.537170,615.152466 490.973633,644.951538 498.918823,676.307922 
	C500.997040,684.509644 503.354187,692.640747 505.699951,701.231812 
	C507.035858,700.818726 508.279541,700.544495 509.435455,700.060730 
	C553.320862,681.692688 599.216431,672.133118 646.533447,668.964294 
	C681.646729,666.612671 716.763428,666.578613 751.809570,670.131836 
	C772.543457,672.234009 792.938660,676.231384 812.850830,682.465210 
	C815.564575,683.314758 817.638611,683.652527 820.042053,681.382629 
	C840.238098,662.308899 858.744202,641.864990 871.988525,617.210815 
	C881.996765,598.580750 890.421692,579.239380 896.943542,559.091736 
	C897.942444,556.005920 899.271851,553.027100 901.067810,549.926575 
	C898.789429,558.488770 904.262390,564.237305 907.911560,570.593323 
	C920.364624,592.283752 929.112854,615.361511 934.014038,639.894348 
	C934.369629,641.674683 934.853455,643.429382 936.287720,645.529785 
	C941.664490,631.384033 947.041199,617.238220 952.417969,603.092407 
	C950.665771,611.502686 956.014038,617.301819 959.502930,623.750366 
	C962.750366,629.752808 965.684082,635.928894 969.062866,641.853455 
	C969.811462,643.166199 972.029053,644.739319 973.264954,644.514404 
	C999.580872,639.727539 1021.466980,647.733582 1040.564819,667.871887 
	C1045.354004,654.936768 1049.976318,642.452637 1054.598633,629.968506 
	C1052.772217,639.493774 1059.467773,645.671021 1063.378540,652.770020 
	C1074.127441,672.282043 1082.347290,692.718811 1086.971191,714.551025 
	C1087.135498,715.326660 1087.414551,716.078003 1087.924805,717.803711 
	C1135.056152,694.336304 1181.129028,692.195374 1225.568604,725.846863 
	C1229.979736,713.714233 1233.910522,702.903015 1237.841187,692.091736 
	C1236.167236,705.600281 1247.985962,713.037781 1251.275879,725.065613 
	C1273.978638,696.026306 1286.439087,663.176514 1298.615723,629.830078 
	C1296.610840,641.076050 1305.064697,648.013306 1309.055054,656.710815 
	C1312.652588,664.551819 1316.601929,672.231262 1320.684814,680.571594 
	C1323.910767,671.753601 1326.984741,663.350708 1330.058838,654.947876 
	C1328.077637,666.775146 1337.740601,673.532410 1341.397705,683.385681 
	C1376.233032,648.011963 1393.030151,604.029297 1405.493530,557.848450 
	C1407.279419,561.280334 1408.434937,564.292847 1410.239990,566.846191 
	C1427.285278,590.959534 1438.834229,617.535034 1446.228027,646.033752 
	C1448.692139,655.531250 1451.487183,664.942749 1454.475708,675.625732 
	C1458.573364,664.347961 1462.276123,654.156616 1465.979004,643.965271 
	C1466.416016,643.956116 1466.853149,643.946960 1467.290161,643.937805 
	C1464.430298,652.827515 1470.157837,658.775818 1473.815796,665.449707 
	C1476.757935,670.818054 1479.591187,676.246094 1482.716553,682.104431 
	C1507.844849,652.322510 1521.555176,617.067749 1534.630981,581.087708 
	C1532.305786,591.296997 1539.267578,597.944214 1543.477417,605.442139 
	C1555.997314,627.739685 1563.740112,651.675964 1568.913574,676.565613 
	C1569.214722,678.014832 1569.602417,679.446045 1570.094116,681.483521 
	C1574.487549,679.989807 1578.632324,678.515930 1582.817627,677.168396 
	C1605.725342,669.792419 1629.246094,666.908386 1653.238525,667.958923 
	C1656.728882,668.111755 1658.714111,666.943481 1660.646118,664.247864 
	C1678.353149,639.542114 1690.998535,612.360535 1700.514893,583.609863 
	C1701.817505,579.674805 1703.555908,575.884094 1705.094116,572.022400 
	C1705.464844,572.179688 1705.913086,572.319397 1705.903076,572.372803 
	C1704.675293,578.893188 1707.333496,584.188904 1710.638306,589.584595 
	C1721.388550,607.136536 1729.311279,625.959167 1734.895264,645.768677 
	C1735.290527,647.171326 1735.829468,648.533508 1736.379028,650.140991 
	C1755.441284,640.056641 1775.296631,633.158447 1796.246704,629.463196 
	C1813.389893,626.439514 1830.656128,625.625366 1847.989502,626.978455 
	C1851.839600,627.278992 1853.658203,626.075195 1854.905273,622.532776 
	C1858.327637,612.811584 1862.044678,603.194092 1865.648315,593.536804 
	C1865.849121,592.998657 1866.078613,592.471191 1866.793457,591.926392 
	C1864.958618,599.883789 1868.837158,605.757141 1873.833984,612.491028 
	C1879.081055,598.522522 1884.060913,585.265137 1889.040771,572.007690 
	C1888.910522,587.900818 1901.826660,597.966675 1906.392212,611.670288 
	C1910.851685,625.055237 1915.672363,638.319763 1920.667236,651.818604 
	C1921.000000,666.687561 1921.000000,681.375122 1921.000000,696.531372 
z"/>
</svg>